<svg xmlns="http://www.w3.org/2000/svg" viewBox="0 0 912 454" width="912" height="454" style="font-family: ui-monospace, monospace; font-size: 12px;"><defs><marker id="arrow" viewBox="0 0 10 10" refX="10" refY="5" markerWidth="8" markerHeight="8" orient="auto-start-reverse"><path d="M 0 0 L 10 5 L 0 10 z" fill="rgba(154,124,255,0.6)"></path></marker></defs><path d="M 256 257 C 296 257, 296 59, 336 59" fill="none" stroke="rgba(154,124,255,0.4)" stroke-width="1.5" marker-end="url(#arrow)"></path><path d="M 256 279 C 456 279, 456 59, 656 59" fill="none" stroke="rgba(154,124,255,0.4)" stroke-width="1.5" marker-end="url(#arrow)"></path><path d="M 336 257 C 296 257, 296 59, 256 59" fill="none" stroke="rgba(154,124,255,0.4)" stroke-width="1.5" marker-end="url(#arrow)"></path><path d="M 576 279 C 576 279, 576 59, 576 59" fill="none" stroke="rgba(154,124,255,0.4)" stroke-width="1.5" marker-end="url(#arrow)"></path><path d="M 576 301 C 616 301, 616 59, 656 59" fill="none" stroke="rgba(154,124,255,0.4)" stroke-width="1.5" marker-end="url(#arrow)"></path><rect x="16" y="16" width="240" height="136" rx="8" fill="rgba(22,22,22,1)" stroke="rgba(255,255,255,0.1)" stroke-width="1"></rect><rect x="16" y="16" width="240" height="32" rx="8" fill="rgba(154,124,255,0.12)"></rect><rect x="16" y="44" width="240" height="4" fill="rgba(154,124,255,0.12)"></rect><text x="28" y="37" fill="rgba(255,255,255,1)" font-weight="600" font-size="13">User</text><text x="28" y="63" fill="rgba(255,255,255,0.85)">id</text><rect x="48.4" y="53" width="22" height="14" rx="3" fill="rgba(79,188,252,0.7)" opacity="0.2"></rect><text x="59.4" y="62" fill="rgba(79,188,252,0.7)" font-size="9" font-weight="600" text-anchor="middle">PK</text><text x="244" y="63" fill="rgba(255,255,255,0.4)" text-anchor="end" font-size="11">Int</text><text x="28" y="85" fill="rgba(255,255,255,0.85)">name</text><text x="244" y="85" fill="rgba(255,255,255,0.4)" text-anchor="end" font-size="11">String</text><text x="28" y="107" fill="rgba(255,255,255,0.85)">email</text><text x="244" y="107" fill="rgba(255,255,255,0.4)" text-anchor="end" font-size="11">String</text><text x="28" y="129" fill="rgba(255,255,255,0.85)">createdAt</text><text x="244" y="129" fill="rgba(255,255,255,0.4)" text-anchor="end" font-size="11">DateTime</text><rect x="336" y="16" width="240" height="136" rx="8" fill="rgba(22,22,22,1)" stroke="rgba(255,255,255,0.1)" stroke-width="1"></rect><rect x="336" y="16" width="240" height="32" rx="8" fill="rgba(154,124,255,0.12)"></rect><rect x="336" y="44" width="240" height="4" fill="rgba(154,124,255,0.12)"></rect><text x="348" y="37" fill="rgba(255,255,255,1)" font-weight="600" font-size="13">Product</text><text x="348" y="63" fill="rgba(255,255,255,0.85)">id</text><rect x="368.4" y="53" width="22" height="14" rx="3" fill="rgba(79,188,252,0.7)" opacity="0.2"></rect><text x="379.4" y="62" fill="rgba(79,188,252,0.7)" font-size="9" font-weight="600" text-anchor="middle">PK</text><text x="564" y="63" fill="rgba(255,255,255,0.4)" text-anchor="end" font-size="11">Int</text><text x="348" y="85" fill="rgba(255,255,255,0.85)">name</text><text x="564" y="85" fill="rgba(255,255,255,0.4)" text-anchor="end" font-size="11">String</text><text x="348" y="107" fill="rgba(255,255,255,0.85)">description</text><text x="564" y="107" fill="rgba(255,255,255,0.4)" text-anchor="end" font-size="11">String?</text><text x="348" y="129" fill="rgba(255,255,255,0.85)">price</text><text x="564" y="129" fill="rgba(255,255,255,0.4)" text-anchor="end" font-size="11">Decimal</text><rect x="656" y="16" width="240" height="136" rx="8" fill="rgba(22,22,22,1)" stroke="rgba(255,255,255,0.1)" stroke-width="1"></rect><rect x="656" y="16" width="240" height="32" rx="8" fill="rgba(154,124,255,0.12)"></rect><rect x="656" y="44" width="240" height="4" fill="rgba(154,124,255,0.12)"></rect><text x="668" y="37" fill="rgba(255,255,255,1)" font-weight="600" font-size="13">Warehouse</text><text x="668" y="63" fill="rgba(255,255,255,0.85)">id</text><rect x="688.4" y="53" width="22" height="14" rx="3" fill="rgba(79,188,252,0.7)" opacity="0.2"></rect><text x="699.4" y="62" fill="rgba(79,188,252,0.7)" font-size="9" font-weight="600" text-anchor="middle">PK</text><text x="884" y="63" fill="rgba(255,255,255,0.4)" text-anchor="end" font-size="11">Int</text><text x="668" y="85" fill="rgba(255,255,255,0.85)">name</text><text x="884" y="85" fill="rgba(255,255,255,0.4)" text-anchor="end" font-size="11">String</text><text x="668" y="107" fill="rgba(255,255,255,0.85)">city</text><text x="884" y="107" fill="rgba(255,255,255,0.4)" text-anchor="end" font-size="11">String</text><text x="668" y="129" fill="rgba(255,255,255,0.85)">createdAt</text><text x="884" y="129" fill="rgba(255,255,255,0.4)" text-anchor="end" font-size="11">DateTime</text><rect x="16" y="192" width="240" height="180" rx="8" fill="rgba(22,22,22,1)" stroke="rgba(255,255,255,0.1)" stroke-width="1"></rect><rect x="16" y="192" width="240" height="32" rx="8" fill="rgba(154,124,255,0.12)"></rect><rect x="16" y="220" width="240" height="4" fill="rgba(154,124,255,0.12)"></rect><text x="28" y="213" fill="rgba(255,255,255,1)" font-weight="600" font-size="13">Inventory</text><text x="28" y="239" fill="rgba(255,255,255,0.85)">id</text><rect x="48.4" y="229" width="22" height="14" rx="3" fill="rgba(79,188,252,0.7)" opacity="0.2"></rect><text x="59.4" y="238" fill="rgba(79,188,252,0.7)" font-size="9" font-weight="600" text-anchor="middle">PK</text><text x="244" y="239" fill="rgba(255,255,255,0.4)" text-anchor="end" font-size="11">Int</text><text x="28" y="261" fill="rgba(154,124,255,0.9)">productId</text><rect x="98.8" y="251" width="22" height="14" rx="3" fill="rgba(154,124,255,0.7)" opacity="0.2"></rect><text x="109.8" y="260" fill="rgba(154,124,255,0.7)" font-size="9" font-weight="600" text-anchor="middle">FK</text><text x="244" y="261" fill="rgba(255,255,255,0.4)" text-anchor="end" font-size="11">Int</text><text x="28" y="283" fill="rgba(154,124,255,0.9)">warehouseId</text><rect x="113.2" y="273" width="22" height="14" rx="3" fill="rgba(154,124,255,0.7)" opacity="0.2"></rect><text x="124.2" y="282" fill="rgba(154,124,255,0.7)" font-size="9" font-weight="600" text-anchor="middle">FK</text><text x="244" y="283" fill="rgba(255,255,255,0.4)" text-anchor="end" font-size="11">Int</text><text x="28" y="305" fill="rgba(255,255,255,0.85)">totalStock</text><text x="244" y="305" fill="rgba(255,255,255,0.4)" text-anchor="end" font-size="11">Int</text><text x="28" y="327" fill="rgba(255,255,255,0.85)">reservedStock</text><text x="244" y="327" fill="rgba(255,255,255,0.4)" text-anchor="end" font-size="11">Int</text><text x="28" y="349" fill="rgba(255,255,255,0.85)">updatedAt</text><text x="244" y="349" fill="rgba(255,255,255,0.4)" text-anchor="end" font-size="11">DateTime</text><rect x="336" y="192" width="240" height="246" rx="8" fill="rgba(22,22,22,1)" stroke="rgba(255,255,255,0.1)" stroke-width="1"></rect><rect x="336" y="192" width="240" height="32" rx="8" fill="rgba(154,124,255,0.12)"></rect><rect x="336" y="220" width="240" height="4" fill="rgba(154,124,255,0.12)"></rect><text x="348" y="213" fill="rgba(255,255,255,1)" font-weight="600" font-size="13">Reservation</text><text x="348" y="239" fill="rgba(255,255,255,0.85)">id</text><rect x="368.4" y="229" width="22" height="14" rx="3" fill="rgba(79,188,252,0.7)" opacity="0.2"></rect><text x="379.4" y="238" fill="rgba(79,188,252,0.7)" font-size="9" font-weight="600" text-anchor="middle">PK</text><text x="564" y="239" fill="rgba(255,255,255,0.4)" text-anchor="end" font-size="11">Int</text><text x="348" y="261" fill="rgba(154,124,255,0.9)">userId</text><rect x="397.2" y="251" width="22" height="14" rx="3" fill="rgba(154,124,255,0.7)" opacity="0.2"></rect><text x="408.2" y="260" fill="rgba(154,124,255,0.7)" font-size="9" font-weight="600" text-anchor="middle">FK</text><text x="564" y="261" fill="rgba(255,255,255,0.4)" text-anchor="end" font-size="11">Int</text><text x="348" y="283" fill="rgba(154,124,255,0.9)">productId</text><rect x="418.8" y="273" width="22" height="14" rx="3" fill="rgba(154,124,255,0.7)" opacity="0.2"></rect><text x="429.8" y="282" fill="rgba(154,124,255,0.7)" font-size="9" font-weight="600" text-anchor="middle">FK</text><text x="564" y="283" fill="rgba(255,255,255,0.4)" text-anchor="end" font-size="11">Int</text><text x="348" y="305" fill="rgba(154,124,255,0.9)">warehouseId</text><rect x="433.2" y="295" width="22" height="14" rx="3" fill="rgba(154,124,255,0.7)" opacity="0.2"></rect><text x="444.2" y="304" fill="rgba(154,124,255,0.7)" font-size="9" font-weight="600" text-anchor="middle">FK</text><text x="564" y="305" fill="rgba(255,255,255,0.4)" text-anchor="end" font-size="11">Int</text><text x="348" y="327" fill="rgba(255,255,255,0.85)">quantity</text><text x="564" y="327" fill="rgba(255,255,255,0.4)" text-anchor="end" font-size="11">Int</text><text x="348" y="349" fill="rgba(255,255,255,0.85)">status</text><text x="564" y="349" fill="rgba(255,255,255,0.4)" text-anchor="end" font-size="11">ReservationStatus</text><text x="348" y="371" fill="rgba(255,255,255,0.85)">expiresAt</text><text x="564" y="371" fill="rgba(255,255,255,0.4)" text-anchor="end" font-size="11">DateTime</text><text x="348" y="393" fill="rgba(255,255,255,0.85)">confirmedAt</text><text x="564" y="393" fill="rgba(255,255,255,0.4)" text-anchor="end" font-size="11">DateTime?</text><text x="348" y="415" fill="rgba(255,255,255,0.85)">createdAt</text><text x="564" y="415" fill="rgba(255,255,255,0.4)" text-anchor="end" font-size="11">DateTime</text></svg>